# xmcd
#
# Track frame offsets:
#	150
#	16440
#	32222
#	47847
#	63385
#	84272
#	96569
#	115664
#	134027
#	150324
#	166124
#	181717
#	197182
#	218049
#	230332
#	249469
#	279237
#
# Disc length: 3735 seconds
#
# Revision: 1
# Processed by: cddbd v1.5.1PL2 Copyright (c) Steve Scherf et al.
# Submitted via: audiograbber 1.83.01
#
DISCID=e00e9511
DTITLE=Sound Choice - SC3255
DYEAR=1900
DGENRE=Karaoke Country
TTITLE0=Rascal Flatts - While You Loved Me
TTITLE1=Eddy Raven - Cowboys Don'T Cry
TTITLE2=John Anderson - The Big Revival
TTITLE3=Clay Walker - Say No More
TTITLE4=Darryl Worley - Second Wind
TTITLE5=Charlie Robison - I Want You Bad
TTITLE6=John Rich - Forever Loving You
TTITLE7=Tracy Lawrence - Unforgiven (Radio Version)
TTITLE8=Rascal Flatts - While You Loved Me
TTITLE9=Eddy Raven - Cowboys Don'T Cry
TTITLE10=John Anderson - The Big Revival
TTITLE11=Clay Walker - Say No More
TTITLE12=Darryl Worley - Second Wind
TTITLE13=Charlie Robison - I Want You Bad
TTITLE14=John Rich - Forever Loving You
TTITLE15=Tracy Lawrence - Unforgiven (Radio Version)
TTITLE16=Must Submit Artist - Data Track
EXTD=Tracks 9-16 Demos
EXTT0=
EXTT1=
EXTT2=
EXTT3=
EXTT4=
EXTT5=
EXTT6=
EXTT7=
EXTT8=
EXTT9=
EXTT10=
EXTT11=
EXTT12=
EXTT13=
EXTT14=
EXTT15=
EXTT16=
PLAYORDER=
